<svg width="2373" height="1390" viewBox="0 0 2373 1390" fill="none" xmlns="http://www.w3.org/2000/svg">
<path d="M723.84 624.738L723.84 1174.09L248.089 899.413L723.84 624.738Z" stroke="#ebebeb"/>
<path d="M251.701 896.654C253.082 899.045 252.262 902.103 249.871 903.484C247.479 904.864 244.422 904.045 243.041 901.654C241.66 899.262 242.479 896.204 244.871 894.823C247.262 893.443 250.32 894.262 251.701 896.654Z" fill="#f2f2f2"/>
<path d="M727.858 1171.38C729.239 1173.77 728.419 1176.83 726.028 1178.21C723.636 1179.59 720.579 1178.77 719.198 1176.38C717.817 1173.99 718.636 1170.93 721.028 1169.55C723.419 1168.17 726.477 1168.99 727.858 1171.38Z" fill="#f2f2f2"/>
<path d="M728.015 621.653C729.396 624.045 728.576 627.103 726.185 628.484C723.793 629.864 720.736 629.045 719.355 626.653C717.974 624.262 718.793 621.204 721.185 619.823C723.576 618.443 726.634 619.262 728.015 621.653Z" fill="#f2f2f2"/>
<path d="M852.226 75.3811L852.226 331.777L630.181 203.579L852.226 75.3811Z" stroke="#ebebeb"/>
<path d="M2095.2 738.777L2095.2 482.381L2317.24 610.579L2095.2 738.777Z" stroke="#ebebeb"/>
<path d="M1739.26 601.625L1263.51 876.299L1263.51 326.95L1739.26 601.625Z" stroke="#ebebeb"/>
<path d="M1267.7 328.698C1266.32 331.09 1263.26 331.909 1260.87 330.528C1258.48 329.147 1257.66 326.09 1259.04 323.698C1260.42 321.307 1263.48 320.487 1265.87 321.868C1268.26 323.249 1269.08 326.307 1267.7 328.698Z" fill="#f2f2f2"/>
<path d="M1267.86 878.426C1266.48 880.818 1263.42 881.637 1261.03 880.256C1258.64 878.876 1257.82 875.818 1259.2 873.426C1260.58 871.035 1263.64 870.215 1266.03 871.596C1268.42 872.977 1269.24 876.035 1267.86 878.426Z" fill="#f2f2f2"/>
<path d="M1744.02 603.698C1742.63 606.089 1739.58 606.909 1737.18 605.528C1734.79 604.147 1733.97 601.089 1735.35 598.698C1736.74 596.307 1739.79 595.487 1742.18 596.868C1744.58 598.249 1745.4 601.307 1744.02 603.698Z" fill="#f2f2f2"/>
</svg>
