<svg width="611" height="487" viewBox="0 0 611 487" fill="none" xmlns="http://www.w3.org/2000/svg">
<path opacity="0.2" d="M331.167 481.335L249.103 339.195L327.447 203.5L327.88 202.75H327.014L170.326 202.75L56.4924 5.58367L605.842 5.58362L331.167 481.335ZM169.749 203.75L247.948 339.195L165.5 482L4.85235 203.75L169.749 203.75ZM248.526 338.195L170.904 203.75L326.148 203.75L248.526 338.195Z" stroke="white"/>
<path d="M61 5C61 7.76142 58.7614 10 56 10C53.2386 10 51 7.76142 51 5C51 2.23858 53.2386 0 56 0C58.7614 0 61 2.23858 61 5Z" fill="white"/>
<path d="M10 204C10 206.761 7.76142 209 5 209C2.23858 209 0 206.761 0 204C0 201.239 2.23858 199 5 199C7.76142 199 10 201.239 10 204Z" fill="white"/>
<path d="M171 482C171 484.761 168.761 487 166 487C163.239 487 161 484.761 161 482C161 479.239 163.239 477 166 477C168.761 477 171 479.239 171 482Z" fill="white"/>
<path d="M336 481C336 483.761 333.761 486 331 486C328.239 486 326 483.761 326 481C326 478.239 328.239 476 331 476C333.761 476 336 478.239 336 481Z" fill="white"/>
<path d="M611 5C611 7.76142 608.761 10 606 10C603.239 10 601 7.76142 601 5C601 2.23858 603.239 0 606 0C608.761 0 611 2.23858 611 5Z" fill="white"/>
</svg>
