<svg width="134" height="45" fill="none" xmlns="http://www.w3.org/2000/svg"><path d="M8.936 18.337c0-.724-.188-1.27-.562-1.636-.366-.374-1.038-.76-2.014-1.16-1.782-.675-3.064-1.464-3.845-2.368-.782-.911-1.172-1.985-1.172-3.222 0-1.498.529-2.698 1.587-3.601 1.066-.912 2.417-1.368 4.052-1.368 1.09 0 2.063.232 2.918.696a4.708 4.708 0 011.965 1.941c.464.838.696 1.79.696 2.857H8.984c0-.83-.179-1.461-.537-1.893-.35-.439-.858-.659-1.526-.659-.626 0-1.115.187-1.464.562-.35.366-.525.862-.525 1.49 0 .487.195.93.586 1.33.39.39 1.082.797 2.075 1.22 1.733.627 2.99 1.396 3.772 2.308.79.911 1.184 2.07 1.184 3.479 0 1.546-.492 2.754-1.477 3.625-.985.87-2.324 1.306-4.016 1.306-1.148 0-2.194-.236-3.138-.708a5.35 5.35 0 01-2.221-2.026c-.53-.88-.794-1.917-.794-3.113h3.601c0 1.025.2 1.77.599 2.234.398.464 1.05.696 1.953.696 1.253 0 1.88-.664 1.88-1.99zm9.07-8.545l.097 1.22c.773-.976 1.794-1.464 3.064-1.464 1.318 0 2.25.594 2.795 1.782.757-1.188 1.835-1.782 3.235-1.782 2.312 0 3.495 1.599 3.553 4.797V23h-3.455v-8.435c0-.765-.106-1.31-.318-1.636-.211-.325-.57-.488-1.074-.488-.643 0-1.123.395-1.44 1.184l.024.415V23h-3.454v-8.41c0-.758-.102-1.303-.306-1.636-.203-.342-.565-.513-1.086-.513-.594 0-1.066.321-1.416.964V23H14.77V9.792h3.235zM39.586 23c-.097-.203-.195-.545-.293-1.025-.618.846-1.456 1.27-2.514 1.27-1.107 0-2.027-.367-2.759-1.1-.724-.732-1.086-1.68-1.086-2.844 0-1.383.439-2.453 1.318-3.21.887-.757 2.16-1.144 3.82-1.16h1.05V13.87c0-.594-.101-1.013-.305-1.257-.203-.244-.5-.366-.89-.366-.863 0-1.295.504-1.295 1.513H33.18c0-1.22.455-2.226 1.367-3.015.92-.797 2.08-1.196 3.479-1.196 1.449 0 2.567.378 3.357 1.135.797.749 1.196 1.823 1.196 3.223v6.213c.016 1.14.18 2.03.488 2.674V23h-3.479zm-2.038-2.466c.382 0 .708-.077.976-.232.269-.154.468-.337.599-.55v-2.746h-.83c-.586 0-1.05.188-1.392.562-.334.374-.5.875-.5 1.501 0 .977.382 1.465 1.147 1.465zm14.05-7.41l-1.147-.097c-.944 0-1.583.415-1.917 1.245V23h-3.467V9.792h3.26l.097 1.428c.546-1.115 1.298-1.672 2.259-1.672.39 0 .708.053.952.159l-.037 3.417zm6.409-6.58v3.248h1.77v2.6h-1.77v6.555c0 .521.069.88.207 1.075.147.195.423.293.83.293.334 0 .607-.029.818-.086l-.024 2.686c-.586.22-1.22.33-1.904.33-2.23 0-3.357-1.279-3.382-3.834v-7.019h-1.526v-2.6h1.526V6.545h3.455zM67.615 23V5.227h4.7c2.075 0 3.727.659 4.956 1.977 1.236 1.318 1.867 3.125 1.892 5.42v2.88c0 2.336-.619 4.172-1.856 5.506-1.229 1.327-2.925 1.99-5.09 1.99h-4.602zm3.589-14.783v11.804h1.074c1.196 0 2.038-.313 2.527-.94.488-.634.744-1.725.769-3.27v-3.09c0-1.66-.232-2.815-.696-3.466-.464-.66-1.253-1.005-2.368-1.038h-1.306zm15.71 15.027c-1.774 0-3.157-.529-4.15-1.587-.993-1.058-1.49-2.571-1.49-4.54v-1.05c0-2.084.456-3.691 1.368-4.822.911-1.132 2.217-1.697 3.918-1.697 1.66 0 2.91.533 3.748 1.599.838 1.058 1.265 2.629 1.281 4.712v1.697h-6.872c.049.976.264 1.692.647 2.148.382.448.972.671 1.77.671 1.155 0 2.12-.394 2.893-1.184l1.355 2.088c-.423.586-1.038 1.062-1.843 1.428a6.388 6.388 0 01-2.625.537zm-2.173-8.105h3.455v-.318c-.016-.79-.147-1.387-.39-1.794-.245-.407-.668-.61-1.27-.61-.603 0-1.042.215-1.319.646-.268.432-.427 1.123-.476 2.076zm12.964 2.978l1.672-8.325h3.602L99.353 23h-3.296L92.42 9.792h3.614l1.672 8.325zM108.228 23h-3.467V9.792h3.467V23zm-3.626-16.626c0-.537.171-.977.513-1.318.342-.342.797-.513 1.367-.513s1.025.17 1.367.513c.342.341.513.78.513 1.318 0 .529-.171.968-.513 1.318-.334.35-.789.525-1.367.525s-1.038-.175-1.379-.525c-.334-.35-.501-.789-.501-1.318zm11.072 14.002c1.001 0 1.509-.652 1.526-1.954h3.247c-.016 1.44-.46 2.604-1.331 3.492-.871.887-1.994 1.33-3.369 1.33-1.701 0-2.999-.529-3.894-1.587-.895-1.058-1.351-2.616-1.367-4.675v-1.05c0-2.075.439-3.658 1.318-4.748.887-1.09 2.193-1.636 3.919-1.636 1.456 0 2.604.452 3.442 1.355.838.895 1.266 2.169 1.282 3.82H117.2c-.008-.74-.131-1.31-.367-1.708-.236-.4-.626-.599-1.171-.599-.603 0-1.034.216-1.294.647-.261.424-.399 1.25-.415 2.478v1.343c0 1.075.053 1.827.158 2.259.106.423.281.736.525.94.244.195.59.293 1.038.293zm12.06 2.868c-1.774 0-3.157-.529-4.15-1.587-.993-1.058-1.489-2.571-1.489-4.54v-1.05c0-2.084.455-3.691 1.367-4.822.911-1.132 2.218-1.697 3.918-1.697 1.661 0 2.91.533 3.748 1.599.838 1.058 1.265 2.629 1.282 4.712v1.697h-6.873c.049.976.265 1.692.647 2.148.383.448.973.671 1.77.671 1.156 0 2.12-.394 2.893-1.184l1.355 2.088c-.423.586-1.037 1.062-1.843 1.428a6.392 6.392 0 01-2.625.537zm-2.172-8.105h3.454v-.318c-.016-.79-.146-1.387-.391-1.794-.244-.407-.667-.61-1.269-.61-.602 0-1.042.215-1.318.646-.269.432-.428 1.123-.476 2.076z" fill="#fff"/><path d="M2.947 38.96l1.29-4.3h1.517l-2.52 7.3c-.386 1.067-1.043 1.6-1.968 1.6a2.55 2.55 0 01-.686-.105v-1.102l.27.018c.359 0 .629-.066.808-.2.184-.128.328-.347.434-.655l.205-.545L.07 34.66h1.535l1.342 4.3zm7.395.288l1.875-4.588h1.781V41h-1.424v-4.195L10.828 41h-.967L8.11 36.781V41H6.686v-6.34h1.793l1.863 4.588zM20.97 41h-1.424v-2.56H17.08V41h-1.424v-6.34h1.424v2.643h2.467V34.66h1.424V41zm3.052-4.324h1.395c.52 0 .973.09 1.36.27.386.179.679.431.878.755.203.324.305.701.305 1.131 0 .652-.23 1.176-.691 1.57-.461.395-1.075.594-1.84.598H22.6v-6.34h1.423v2.016zM30.44 41h-1.423v-6.34h1.424V41zm-6.416-3.182v2.045h1.39c.347 0 .62-.086.82-.258.203-.175.304-.423.304-.744 0-.32-.1-.572-.299-.755-.195-.188-.46-.284-.797-.288h-1.418zm10.917 3.3c-.903 0-1.635-.284-2.198-.85-.558-.57-.838-1.328-.838-2.274v-.176c0-.633.121-1.197.364-1.693.246-.5.59-.889 1.03-1.166a2.718 2.718 0 011.477-.416c.864 0 1.53.275 1.998.826.473.55.71 1.33.71 2.338v.574H33.34c.043.524.217.938.521 1.242.309.305.696.457 1.16.457.653 0 1.184-.263 1.594-.79l.768.732a2.58 2.58 0 01-1.02.885c-.422.207-.896.31-1.423.31zm-.17-5.433c-.391 0-.708.137-.95.41-.238.274-.39.655-.457 1.143h2.713v-.105c-.031-.477-.158-.836-.38-1.078-.223-.246-.532-.37-.926-.37zm11.8.106h-2.056V41H43.09v-5.209h-2.033v-1.13h5.513v1.13zm3.37 5.326c-.903 0-1.635-.283-2.198-.85-.558-.57-.838-1.328-.838-2.273v-.176c0-.633.121-1.197.364-1.693.246-.5.59-.889 1.03-1.166a2.718 2.718 0 011.477-.416c.864 0 1.53.275 1.998.826.473.55.71 1.33.71 2.338v.574H48.34c.043.524.217.938.521 1.242.309.305.696.457 1.16.457.653 0 1.184-.263 1.594-.79l.768.732a2.58 2.58 0 01-1.02.885c-.422.207-.896.31-1.423.31zm-.17-5.431c-.391 0-.708.136-.95.41-.238.273-.39.654-.457 1.142h2.713v-.105c-.031-.477-.158-.836-.38-1.078-.223-.246-.532-.37-.926-.37zm6.1 1.06l1.206-2.086h1.582l-1.94 3.123L58.724 41h-1.57l-1.266-2.168L54.627 41h-1.582l2.004-3.217-1.934-3.123h1.57l1.184 2.086zM64.997 41h-1.424v-2.56h-2.467V41h-1.423v-6.34h1.423v2.643h2.467V34.66h1.424V41zm1.254-3.228c0-.622.123-1.18.37-1.676.245-.5.59-.883 1.036-1.149.445-.27.957-.404 1.535-.404.856 0 1.55.275 2.08.826.536.55.825 1.281.868 2.191l.005.334c0 .626-.12 1.184-.363 1.676a2.64 2.64 0 01-1.031 1.143c-.445.27-.961.404-1.547.404-.894 0-1.611-.297-2.15-.89-.536-.598-.803-1.393-.803-2.385v-.07zm1.424.123c0 .652.135 1.164.404 1.535.27.367.645.55 1.125.55s.854-.187 1.12-.562c.269-.375.403-.924.403-1.646 0-.641-.138-1.149-.415-1.524a1.311 1.311 0 00-1.12-.563c-.465 0-.834.186-1.107.557-.273.367-.41.918-.41 1.653zm10.968-3.235V41H77.22v-5.191h-1.793l-.117 2.209c-.075 1.062-.28 1.826-.616 2.29-.332.462-.841.692-1.529.692h-.44l-.005-1.184.293-.029c.312-.043.539-.232.68-.568.144-.34.236-.957.275-1.852l.117-2.707h4.558zm1.249 3.112c0-.622.123-1.18.369-1.676.246-.5.591-.883 1.037-1.149.445-.27.957-.404 1.535-.404.855 0 1.549.275 2.08.826.535.55.824 1.281.867 2.191l.006.334c0 .626-.121 1.184-.363 1.676a2.64 2.64 0 01-1.031 1.143c-.446.27-.961.404-1.547.404-.895 0-1.612-.297-2.15-.89-.536-.598-.803-1.393-.803-2.385v-.07zm1.423.123c0 .652.135 1.164.405 1.535.27.367.644.55 1.125.55.48 0 .853-.187 1.119-.562.27-.375.404-.924.404-1.646 0-.641-.138-1.149-.416-1.524a1.311 1.311 0 00-1.119-.563c-.465 0-.834.186-1.107.557-.274.367-.41.918-.41 1.653zm9.897-2.086h-2.754V41H87.04v-6.34h4.172v1.149zm4.764-1.149h1.417V41h-1.417v-4.23L93.492 41h-1.418v-6.34h1.418v4.23l2.485-4.23zm6.89 0h1.418V41h-1.418v-4.23L100.383 41h-1.418v-6.34h1.418v4.23l2.484-4.23z" fill="#788891"/></svg>