<svg width="2373" height="1390" fill="none" xmlns="http://www.w3.org/2000/svg"><path d="M723.84 624.738v549.352L248.089 899.413 723.84 624.738z" stroke="#ebebeb"/><path d="M251.701 896.654a5 5 0 11-8.66 5 5 5 0 018.66-5zm476.157 274.726a5 5 0 11-8.66 5 5 5 0 018.66-5zm.157-549.727a5.001 5.001 0 11-8.662 5 5.001 5.001 0 018.662-5z" fill="#f2f2f2"/><path d="M852.226 75.381v256.396L630.181 203.579 852.226 75.381zM2095.2 738.777V482.381l222.04 128.198-222.04 128.198zm-355.94-137.152l-475.75 274.674V326.95l475.75 274.675z" stroke="#ebebeb"/><path d="M1267.7 328.698a5 5 0 11-8.66-5 5 5 0 018.66 5zm.16 549.728a5 5 0 11-8.66-5 5 5 0 018.66 5zm476.16-274.728a5.012 5.012 0 01-6.84 1.83 5.002 5.002 0 01-1.83-6.83 5.002 5.002 0 016.83-1.83 4.996 4.996 0 011.84 6.83z" fill="#f2f2f2"/></svg>