<svg width="611" height="487" fill="none" xmlns="http://www.w3.org/2000/svg"><path opacity=".2" d="M331.167 481.335l-82.064-142.14L327.447 203.5l.433-.75H170.326L56.492 5.584h549.35L331.167 481.335zM169.749 203.75l78.199 135.445L165.5 482 4.852 203.75H169.75zm78.777 134.445L170.904 203.75h155.244l-77.622 134.445z" stroke="#fff"/><path d="M61 5a5 5 0 11-10 0 5 5 0 0110 0zM10 204a5 5 0 11-10 0 5 5 0 0110 0zm161 278a5 5 0 11-10.001-.001A5 5 0 01171 482zm165-1a5 5 0 11-10.001-.001A5 5 0 01336 481zM611 5a5 5 0 11-10 0 5 5 0 0110 0z" fill="#fff"/></svg>